<svg id="Layer_1" data-name="Layer 1" xmlns="http://www.w3.org/2000/svg" viewBox="0 0 100 100"><defs><style>.cls-1{fill:#e42313;}</style></defs><title>heart-organ-red</title><path class="cls-1" d="M32.34,24a.34.34,0,0,0-.45-.28c-6.59,1.74-9.57,6.07-11.64,10.94-4.66,11-3.79,21.88,2.25,32.19C27.85,76,33.7,84.9,39.66,93.74c5.32,7.89,18.58,8.4,24.47,1.08,2.08-2.57,4.25-5.25,5.45-8.19,3.69-9.07,7-18.28,10.32-27.48a70.55,70.55,0,0,0,2.53-9.21c1.81-8.51-4.89-17.52-14.22-19.24a4.31,4.31,0,0,0-2.7.36c-3.05,1.53-6.43,1.73-9,4.65a22.52,22.52,0,0,0-3.7,6.19.26.26,0,0,1-.5-.11C52.1,34,56.57,30.29,66.08,28.63c2.92-.5,6-.22,8.92-.73,1.58-.27,3.58-1.14,4.31-2.3,3.15-4.93-.34-10.16-6.62-10.49-6-.32-11.95.49-20,2-.32.06-.43-.43-.13-.55,4.55-1.84,8.71-4,13.27-5.84a2.39,2.39,0,0,0,1.64-2.34c-.23-2.28-2.1-4.16-4.45-5.8-2.85-2-5.51-1.09-8.26.47-10.6,6-18,14.07-20.23,25.37-.69,3.55-.84,7.18-1.23,10.77a.48.48,0,0,1-.95,0A99.41,99.41,0,0,1,32.34,24Z"/><path class="cls-1" d="M31.48,14c-1.05-2.49-2.06-5-2.92-7.66-.4-1.26.35-3.82,1.4-4.43C32,.72,34.74-.29,37,.08c3.81.63,5.4,7,3,9.79-1.3,1.5-2.55,3.05-3.7,4.65-1,1.37-1.87,2.79-2.52,3.8a.28.28,0,0,1-.47,0Z"/></svg>